<svg width="79" height="24" viewBox="0 0 79 24" fill="none" xmlns="http://www.w3.org/2000/svg">
<path d="M21.7686 12.2088C21.9352 12.7084 22.0377 13.2166 22.0761 13.7355C22.1316 14.2544 22.1594 14.8501 22.1594 15.5227V23.7094H17.9166V15.9562C17.9166 15.1491 17.8418 14.5533 17.6924 14.169C17.5429 13.7654 17.2824 13.4494 16.9109 13.2188C16.5564 12.9882 16.1208 12.8728 15.5998 12.8728C14.7628 12.8728 14.056 13.1611 13.4795 13.7376C12.9029 14.2949 12.6147 15.006 12.6147 15.8708V23.7115H8.37189V9.44146H12.6147V13.8508C12.9307 12.4479 13.5457 11.3141 14.4574 10.4493C15.3692 9.58452 16.4667 9.1532 17.75 9.1532C18.7728 9.1532 19.6205 9.43292 20.2889 9.98809C20.9786 10.5475 21.4697 11.2863 21.7686 12.2088Z" fill="black"/>
<path d="M31.3364 23.9999C29.8844 23.9999 28.5648 23.6924 27.3733 23.0775C26.201 22.4433 25.2807 21.57 24.6103 20.4553C23.9398 19.3215 23.6046 18.0339 23.6046 16.5926C23.6046 15.1321 23.9398 13.8445 24.6103 12.7299C25.2807 11.5961 26.201 10.7228 27.3733 10.1078C28.5648 9.47361 29.8844 9.15759 31.3364 9.15759C32.7884 9.15759 34.0994 9.47361 35.2717 10.1078C36.4632 10.7228 37.392 11.5961 38.0625 12.7299C38.733 13.8445 39.0661 15.1321 39.0661 16.5926C39.0661 18.0339 38.7308 19.3215 38.0625 20.4553C37.392 21.57 36.4632 22.4433 35.2717 23.0775C34.0994 23.6924 32.7884 23.9999 31.3364 23.9999ZM31.3364 19.9642C32.2844 19.9642 33.0574 19.6567 33.6532 19.0418C34.2489 18.4076 34.5457 17.5813 34.5457 16.5627C34.5457 15.5442 34.2382 14.7285 33.6254 14.1136C33.0297 13.4986 32.2674 13.1911 31.3364 13.1911C30.3883 13.1911 29.6068 13.4986 28.9919 14.1136C28.3961 14.7285 28.0993 15.5442 28.0993 16.5627C28.0993 17.5813 28.3961 18.4076 28.9919 19.0418C29.6068 19.6567 30.3883 19.9642 31.3364 19.9642Z" fill="black"/>
<path d="M44.7509 13.4773V17.3101C44.7509 18.0596 44.9366 18.6446 45.3082 19.0674C45.6797 19.471 46.2669 19.6717 47.0676 19.6717H49.1602V23.7074H46.3416C45.2633 23.7074 44.2768 23.496 43.3843 23.0732C42.5088 22.6312 41.8127 22.0077 41.2917 21.2005C40.7707 20.3742 40.5102 19.4133 40.5102 18.3179V4.51337H44.753V9.44158H49.1623V13.4773H44.7509Z" fill="black"/>
<path d="M57.6808 24C56.2673 24 54.984 23.7032 53.8288 23.1074C52.6757 22.5117 51.764 21.6576 51.0935 20.5429C50.4422 19.4091 50.1177 18.0938 50.1177 16.5948C50.1177 15.0766 50.4529 13.7613 51.1234 12.6467C51.7939 11.5129 52.7056 10.6481 53.8587 10.0523C55.0309 9.45659 56.3335 9.15979 57.7662 9.15979C59.31 9.15979 60.8261 9.45659 62.3165 10.0523V14.2033C60.8645 13.5307 59.4595 13.1955 58.1015 13.1955C57.0787 13.1955 56.2416 13.4944 55.5904 14.088C54.9391 14.6645 54.6146 15.4909 54.6146 16.5671C54.6146 17.6432 54.9391 18.4781 55.5904 19.0739C56.2416 19.6696 57.0787 19.9664 58.1015 19.9664C59.6261 19.9664 61.0417 19.6013 62.3443 18.871V23.022C60.8346 23.6733 59.2801 24 57.6808 24Z" fill="black"/>
<path d="M77.6118 12.2086C77.7784 12.7083 77.8809 13.2165 77.9193 13.7353C77.9748 14.2542 78.0026 14.85 78.0026 15.5226V23.7092H73.7598V15.956C73.7598 15.1489 73.685 14.5531 73.5356 14.1688C73.3861 13.7652 73.1256 13.4492 72.7541 13.2186C72.3996 12.988 71.964 12.8727 71.443 12.8727C70.606 12.8727 69.8992 13.1609 69.3227 13.7375C68.7461 14.2948 68.4579 15.0058 68.4579 15.8706V23.7113H64.2151V3.18707H68.4579V13.8528C68.7739 12.4499 69.3889 11.3161 70.3006 10.4513C71.2124 9.5865 72.3099 9.15517 73.5932 9.15517C74.616 9.15517 75.4637 9.43489 76.1321 9.99006C76.8196 10.5474 77.3129 11.2862 77.6118 12.2086Z" fill="black"/>
<path d="M4.43808 0.305912C4.49967 -0.101971 5.08764 -0.101971 5.14924 0.305912L5.27878 1.16368C5.56736 3.07451 6.96175 4.63221 8.82909 5.1298L9.32029 5.26069C9.67632 5.35556 9.67632 5.8608 9.32029 5.95567L8.82908 6.08656C6.96175 6.58415 5.56736 8.14185 5.27878 10.0527L5.14924 10.9104C5.08764 11.3183 4.49967 11.3183 4.43808 10.9104L4.30853 10.0527C4.01996 8.14185 2.62556 6.58415 0.758228 6.08656L0.267018 5.95567C-0.0890057 5.8608 -0.089006 5.35556 0.267018 5.26069L0.758227 5.1298C2.62556 4.63221 4.01996 3.07451 4.30853 1.16368L4.43808 0.305912Z" fill="black"/>
</svg>
